<svg width="17" height="16" viewBox="0 0 17 16" fill="none" xmlns="http://www.w3.org/2000/svg">
<path d="M16.5004 8.19168C16.5004 7.65139 16.447 7.09367 16.3581 6.5708H8.6582V9.65571H13.0683C12.8905 10.6492 12.3037 11.5206 11.4323 12.0783L14.0641 14.0826C15.6112 12.6709 16.5004 10.6143 16.5004 8.19168Z" fill="#4280EF"/>
<path d="M8.6581 15.9999C10.8632 15.9999 12.7126 15.2854 14.064 14.0653L11.4322 12.0785C10.7031 12.5665 9.76063 12.8453 8.6581 12.8453C6.52418 12.8453 4.72812 11.4336 4.07016 9.55127L1.36719 11.5904C2.75424 14.2919 5.56391 15.9999 8.6581 15.9999Z" fill="#34A353"/>
<path d="M4.06988 9.53375C3.73201 8.54031 3.73201 7.45972 4.06988 6.46627L1.36691 4.40967C0.211031 6.67542 0.211031 9.34204 1.36691 11.5904L4.06988 9.53375Z" fill="#F6B704"/>
<path d="M8.6581 3.17236C9.81398 3.15493 10.9521 3.59065 11.7879 4.37495L14.1174 2.07434C12.6414 0.714887 10.6853 -0.0171247 8.6581 0.000304184C5.56391 0.000304184 2.75424 1.70833 1.36719 4.40981L4.07016 6.46641C4.72812 4.56667 6.52418 3.17236 8.6581 3.17236Z" fill="#E54335"/>
</svg>
